<?xml version="1.0" encoding="UTF-8"?>
<!DOCTYPE svg PUBLIC "-//W3C//DTD SVG 1.1//EN" "http://www.w3.org/Graphics/SVG/1.1/DTD/svg11.dtd">
<!-- Creator: CorelDRAW (Evaluation Version) -->
<svg xmlns="http://www.w3.org/2000/svg" xml:space="preserve" width="2.46028in" height="0.625886in" version="1.1" style="shape-rendering:geometricPrecision; text-rendering:geometricPrecision; image-rendering:optimizeQuality; fill-rule:evenodd; clip-rule:evenodd"
viewBox="0 0 231.18 58.81"
 xmlns:xlink="http://www.w3.org/1999/xlink"
 xmlns:xodm="http://www.corel.com/coreldraw/odm/2003">
 <defs>
  <style type="text/css">
   <![CDATA[
    .str0 {stroke:black;stroke-width:0.65;stroke-miterlimit:2.61313}
    .fil1 {fill:#111119}
    .fil0 {fill:white}
    .fil2 {fill:white;fill-rule:nonzero}
   ]]>
  </style>
 </defs>
 <g id="Layer_x0020_1">
  <metadata id="CorelCorpID_0Corel-Layer"/>
  <g id="_105553245149248">
   <g>
    <circle class="fil0 str0" cx="29.41" cy="29.41" r="29.08"/>
    <circle class="fil1 str0" cx="29.41" cy="29.41" r="23.51"/>
    <path class="fil2" d="M38.75 37.9c1.05,0 1.91,-0.11 2.59,-0.33 1.2,-0.4 2.19,-1.18 2.95,-2.33 0.62,-0.92 1.06,-2.11 1.32,-3.55 0.16,-0.86 0.23,-1.66 0.23,-2.39 0,-2.83 -0.56,-5.03 -1.69,-6.6 -1.12,-1.57 -2.94,-2.35 -5.43,-2.35l-4.2 0 0 17.55 4.22 0zm-23.99 -5.43c0,1.77 0.63,3.25 1.9,4.44 1.26,1.19 3.3,1.78 6.09,1.78 2.17,0 3.96,-0.55 5.35,-1.66 1.11,-0.88 1.78,-2.06 2.01,-3.54l0 -2.42c-0.23,-1.49 -0.92,-2.63 -2.07,-3.43 -1.44,-1 -3.22,-1.5 -5.34,-1.5 -2.36,0 -4.28,0.53 -5.74,1.6 -1.47,1.07 -2.2,2.64 -2.2,4.72zm7.06 -8.74c2.13,0 3.92,0.26 5.36,0.8 0.84,0.31 1.78,0.85 2.85,1.62l0 -8.34 0.09 0 0 -0.11 9.26 0c3.14,0 5.58,1.12 7.31,3.35 1.55,2.01 2.32,4.59 2.32,7.73 0,2.43 -0.46,4.62 -1.37,6.58 -1.61,3.47 -4.37,5.2 -8.29,5.2l-9.23 0 0 -2.13c-1.05,0.93 -2.28,1.6 -3.69,2.03 -1.49,0.45 -3.2,0.68 -5.13,0.68 -3.11,0 -5.8,-0.77 -8.07,-2.32 -2.28,-1.55 -3.41,-3.61 -3.41,-6.17 0,-2.41 1.04,-4.49 3.11,-6.25 2.08,-1.76 5.04,-2.64 8.9,-2.64z"/>
   </g>
   <path class="fil2" d="M61.85 37.3l0 -22.08 8.43 0c2.57,0 4.73,0.44 6.52,1.32 1.79,0.88 3.13,2.13 4.04,3.76 0.91,1.66 1.35,3.63 1.35,5.95 0,2.29 -0.44,4.26 -1.35,5.92 -0.91,1.66 -2.26,2.91 -4.04,3.79 -1.79,0.91 -3.95,1.35 -6.52,1.35l-8.43 0zm4.89 -4.01l3.26 0c2.47,0 4.29,-0.6 5.51,-1.75 1.19,-1.16 1.79,-2.91 1.79,-5.29 0,-2.41 -0.6,-4.17 -1.79,-5.32 -1.22,-1.16 -3.04,-1.72 -5.51,-1.72l-3.26 0 0 14.1z"/>
   <path id="_1" class="fil2" d="M85.69 37.3l0 -15.88 4.73 0 0 15.88 -4.73 0zm-0.19 -18.48l0 -4.42 5.07 0 0 4.42 -5.07 0z"/>
   <path id="_2" class="fil2" d="M94.27 44.06l0 -18.51c0,-0.66 -0.03,-1.35 -0.06,-2.07 -0.03,-0.69 -0.09,-1.38 -0.19,-2.07l4.54 0 0.38 3.1 -0.34 0c0.31,-1.03 0.97,-1.88 1.97,-2.51 1,-0.6 2.16,-0.91 3.45,-0.91 1.38,0 2.6,0.31 3.63,0.97 1.03,0.66 1.88,1.63 2.47,2.85 0.6,1.22 0.88,2.69 0.88,4.42 0,1.72 -0.28,3.23 -0.88,4.45 -0.6,1.22 -1.44,2.19 -2.47,2.85 -1.03,0.66 -2.26,1 -3.63,1 -1.28,0 -2.41,-0.31 -3.38,-0.91 -1,-0.6 -1.66,-1.41 -2,-2.41l0.38 0 0 9.74 -4.73 0zm8.3 -9.99c1.1,0 2,-0.38 2.66,-1.16 0.66,-0.78 1,-1.97 1,-3.57 0,-1.6 -0.34,-2.79 -1,-3.54 -0.66,-0.75 -1.57,-1.13 -2.66,-1.13 -1.1,0 -1.97,0.38 -2.63,1.13 -0.69,0.75 -1.03,1.94 -1.03,3.54 0,1.6 0.34,2.79 1.03,3.57 0.66,0.78 1.53,1.16 2.63,1.16z"/>
   <path id="_3" class="fil2" d="M114.07 44.06l0 -18.51c0,-0.66 -0.03,-1.35 -0.06,-2.07 -0.03,-0.69 -0.09,-1.38 -0.19,-2.07l4.54 0 0.38 3.1 -0.34 0c0.31,-1.03 0.97,-1.88 1.97,-2.51 1,-0.6 2.16,-0.91 3.45,-0.91 1.38,0 2.6,0.31 3.63,0.97 1.03,0.66 1.88,1.63 2.47,2.85 0.6,1.22 0.88,2.69 0.88,4.42 0,1.72 -0.28,3.23 -0.88,4.45 -0.6,1.22 -1.44,2.19 -2.47,2.85 -1.03,0.66 -2.26,1 -3.63,1 -1.28,0 -2.41,-0.31 -3.38,-0.91 -1,-0.6 -1.66,-1.41 -2,-2.41l0.38 0 0 9.74 -4.73 0zm8.3 -9.99c1.1,0 2,-0.38 2.66,-1.16 0.66,-0.78 1,-1.97 1,-3.57 0,-1.6 -0.34,-2.79 -1,-3.54 -0.66,-0.75 -1.57,-1.13 -2.66,-1.13 -1.1,0 -1.97,0.38 -2.63,1.13 -0.69,0.75 -1.03,1.94 -1.03,3.54 0,1.6 0.34,2.79 1.03,3.57 0.66,0.78 1.53,1.16 2.63,1.16z"/>
   <path id="_4" class="fil2" d="M133.33 44.41l-1.1 -3.7c0.97,-0.19 1.82,-0.41 2.51,-0.66 0.66,-0.25 1.22,-0.56 1.66,-0.97 0.44,-0.41 0.78,-0.94 1.07,-1.6l0.78 -1.85 -0.13 1.82 -6.89 -16.04 4.98 0 4.54 11.5 -0.97 0 4.6 -11.5 4.7 0 -7.17 16.51c-0.53,1.19 -1.07,2.19 -1.66,2.98 -0.59,0.78 -1.25,1.38 -1.94,1.85 -0.69,0.47 -1.44,0.81 -2.26,1.07 -0.85,0.25 -1.75,0.44 -2.72,0.59z"/>
   <path id="_5" class="fil2" d="M151.03 37.3l0 -22.08 8.43 0c2.57,0 4.73,0.44 6.52,1.32 1.79,0.88 3.13,2.13 4.04,3.76 0.91,1.66 1.35,3.63 1.35,5.95 0,2.29 -0.44,4.26 -1.35,5.92 -0.91,1.66 -2.26,2.91 -4.04,3.79 -1.79,0.91 -3.95,1.35 -6.52,1.35l-8.43 0zm4.89 -4.01l3.26 0c2.47,0 4.29,-0.6 5.51,-1.75 1.19,-1.16 1.79,-2.91 1.79,-5.29 0,-2.41 -0.6,-4.17 -1.79,-5.32 -1.22,-1.16 -3.04,-1.72 -5.51,-1.72l-3.26 0 0 14.1z"/>
   <path id="_6" class="fil2" d="M181.03 37.64c-1.38,0 -2.6,-0.34 -3.63,-1 -1.03,-0.66 -1.85,-1.63 -2.44,-2.85 -0.59,-1.22 -0.88,-2.72 -0.88,-4.45 0,-1.72 0.28,-3.19 0.88,-4.42 0.6,-1.22 1.41,-2.19 2.44,-2.85 1.03,-0.66 2.26,-0.97 3.63,-0.97 1.28,0 2.41,0.31 3.45,0.91 1,0.63 1.66,1.47 1.97,2.51l-0.34 0 0.38 -3.1 4.54 0c-0.06,0.69 -0.13,1.38 -0.16,2.07 -0.06,0.72 -0.09,1.41 -0.09,2.07l0 11.75 -4.7 0 -0.03 -2.98 0.38 0c-0.34,1 -1,1.82 -2,2.41 -1,0.6 -2.13,0.91 -3.38,0.91zm1.44 -3.57c1.1,0 1.97,-0.38 2.63,-1.16 0.66,-0.78 1,-1.97 1,-3.57 0,-1.6 -0.34,-2.79 -1,-3.54 -0.66,-0.75 -1.53,-1.13 -2.63,-1.13 -1.1,0 -1.97,0.38 -2.63,1.13 -0.66,0.75 -1,1.94 -1,3.54 0,1.6 0.34,2.79 1,3.57 0.66,0.78 1.53,1.16 2.63,1.16z"/>
   <path id="_7" class="fil2" d="M194.66 44.06l0 -18.51c0,-0.66 -0.03,-1.35 -0.06,-2.07 -0.03,-0.69 -0.09,-1.38 -0.19,-2.07l4.54 0 0.38 3.1 -0.34 0c0.31,-1.03 0.97,-1.88 1.97,-2.51 1,-0.6 2.16,-0.91 3.45,-0.91 1.38,0 2.6,0.31 3.63,0.97 1.03,0.66 1.88,1.63 2.47,2.85 0.6,1.22 0.88,2.69 0.88,4.42 0,1.72 -0.28,3.23 -0.88,4.45 -0.6,1.22 -1.44,2.19 -2.47,2.85 -1.03,0.66 -2.26,1 -3.63,1 -1.28,0 -2.41,-0.31 -3.38,-0.91 -1,-0.6 -1.66,-1.41 -2,-2.41l0.38 0 0 9.74 -4.73 0zm8.3 -9.99c1.1,0 2,-0.38 2.66,-1.16 0.66,-0.78 1,-1.97 1,-3.57 0,-1.6 -0.34,-2.79 -1,-3.54 -0.66,-0.75 -1.57,-1.13 -2.66,-1.13 -1.1,0 -1.97,0.38 -2.63,1.13 -0.69,0.75 -1.03,1.94 -1.03,3.54 0,1.6 0.34,2.79 1.03,3.57 0.66,0.78 1.53,1.16 2.63,1.16z"/>
   <path id="_8" class="fil2" d="M214.45 44.06l0 -18.51c0,-0.66 -0.03,-1.35 -0.06,-2.07 -0.03,-0.69 -0.09,-1.38 -0.19,-2.07l4.54 0 0.38 3.1 -0.34 0c0.31,-1.03 0.97,-1.88 1.97,-2.51 1,-0.6 2.16,-0.91 3.45,-0.91 1.38,0 2.6,0.31 3.63,0.97 1.03,0.66 1.88,1.63 2.47,2.85 0.6,1.22 0.88,2.69 0.88,4.42 0,1.72 -0.28,3.23 -0.88,4.45 -0.6,1.22 -1.44,2.19 -2.47,2.85 -1.03,0.66 -2.26,1 -3.63,1 -1.28,0 -2.41,-0.31 -3.38,-0.91 -1,-0.6 -1.66,-1.41 -2,-2.41l0.38 0 0 9.74 -4.73 0zm8.3 -9.99c1.1,0 2,-0.38 2.66,-1.16 0.66,-0.78 1,-1.97 1,-3.57 0,-1.6 -0.34,-2.79 -1,-3.54 -0.66,-0.75 -1.57,-1.13 -2.66,-1.13 -1.1,0 -1.97,0.38 -2.63,1.13 -0.69,0.75 -1.03,1.94 -1.03,3.54 0,1.6 0.34,2.79 1.03,3.57 0.66,0.78 1.53,1.16 2.63,1.16z"/>
  </g>
 </g>
</svg>
